<?xml version="1.0" encoding="utf-8"?>
<!DOCTYPE svg PUBLIC "-//W3C//DTD SVG 1.1//EN" "http://www.w3.org/Graphics/SVG/1.1/DTD/svg11.dtd">
<svg version="1.1" id="Layer_1" xmlns="http://www.w3.org/2000/svg" xmlns:xlink="http://www.w3.org/1999/xlink" x="0px" y="0px"
	 viewBox="0 0 1920 1536" enable-background="new 0 0 1920 1536" xml:space="preserve">
<g>
	<path fill="#FFFFFF" stroke="#FFFFFF" stroke-width="0.494" d="M1069.29,356.4c11.9199-0.4,23.86-0.05,35.7899-0.16
		c4.8201,0.12,9.67-0.33,14.4701,0.36c-0.1801,16.61-0.2001,33.23-0.03,49.85c-9.4301,2.04-19.0801-0.43-28.5801,0.78
		c-7.3199-0.5-14.6699,0.48-21.95-0.44c-0.88-4.54-0.37-9.17-0.51-13.74c0.11-12.04-0.16-24.1,0.21-36.12L1069.29,356.4z"/>
	<path fill="#FFFFFF" stroke="#FFFFFF" stroke-width="0.494" d="M1222.15,356.07c16.51,0.39,33.0399,0.04,49.5599,0.19
		c0.87,6.56-0.3199,13.16,0.4,19.74c-0.45,10.31-0.04,20.64-0.33,30.97c-5.9501,0.86-11.9-0.31-17.8401-0.16
		c-9.3199,0.85-18.6699-0.25-27.99,0.37c-1.3099-0.06-2.6-0.16-3.87-0.28C1222.3101,389.96,1222.11,373.01,1222.15,356.07z"/>
	<path fill="#BB8200" stroke="#BB8200" stroke-width="0.494" d="M1272.1801,50.76c50.74-0.06,101.49,0.07,152.23-0.06
		c0.4099,16.97,0.14,33.95,0.12,50.93c50.1599,0.17,100.3199,0.02,150.48,0.08c51.54-0.11,103.08,0.2,154.62-0.16
		c0.37,17.02,0.26,34.07,0.12,51.08c-118.6899-0.12-237.38,0.06-356.0699-0.09c0.09,16.97,0.0499,33.93,0.0199,50.89
		c135.64,0.2,271.28,0.05,406.92,0.08c0.14,16.98,0.2,33.98-0.03,50.96c-101.6799-0.1-203.36-0.12-305.0399,0.01
		c0.0499,16.95-0.05,33.89,0.0499,50.84c101.66,0.02,203.3201,0.09,304.98-0.03l0,0c-2.11,3.18-1.0399,7.19-1.2799,10.76
		c-0.17,12.9,0.73,25.86-0.5,38.71c-10.26,0.7-20.54,0.11-30.8,0.28c-84.33,0.06-168.66,0.01-252.99,0.02
		c-22.61-0.18-45.25,0.35-67.85-0.27c-1.5901-6.14-0.8-12.52-0.9701-18.78c-0.1299-10.61,0.3601-21.24-0.5499-31.83
		c-14.54-0.95-29.13-0.1-43.6901-0.45c-3.21,0.11-6.8199-0.77-9.49,1.49c-16.51,0.34-33.0299,0.06-49.5499,0.13
		c-16.9401-0.08-33.89,0.15-50.8301-0.1c-0.38-16.95,0.0901-33.9-0.2699-50.84c-16.8401,0.01-33.6801-0.02-50.53,0.01
		c-0.15,12.85-0.02,25.7-0.0701,38.55c-0.09,4.16,0.4501,8.41-0.6499,12.49c-80.17-0.26-160.3401-0.04-240.5101-0.11
		c-4.27-0.19-8.64,0.5-12.84-0.4c-0.69-3.94-0.27-7.95-0.33-11.92c-0.02-12.85-0.01-25.7-0.01-38.55
		c16.87-0.17,33.74-0.12,50.61-0.03c0.23-16.96,0.07-33.91,0.09-50.87c16.97-0.16,33.93,0.02,50.9-0.1
		c-0.03-16.97-0.0699-33.93,0.02-50.9c33.92-0.09,67.85,0.15,101.78-0.12c0.11-16.94-0.17-33.88,0.14-50.82
		c33.8099,0.16,67.62,0,101.4399,0.08C1272.1,84.74,1271.48,67.73,1272.1801,50.76 M1322.76,107.01c0.09,14.72-0.1,29.44,0.08,44.16
		c0.04,2.27,2.78,1.13,4.1801,1.42c15.5599-0.1,31.13,0.11,46.7-0.1c-0.1699-16.94,0.25-33.9-0.22-50.84
		c-16.61,0.11-33.22,0.14-49.8199-0.01C1322.49,103.19,1322.79,105.19,1322.76,107.01 M1323.8101,153.33
		c0.9299,0.71,2,1.02,3.21,0.92c13.98,0.01,27.96,0.01,41.9399,0.07c1.39-0.23,3.5601,0.57,4.3301-1.07
		C1356.8,153.28,1340.3,153.22,1323.8101,153.33z"/>
	<path fill="#AA8420" stroke="#AA8420" stroke-width="0.494" d="M1323.8101,153.33c16.49-0.11,32.99-0.05,49.48-0.08
		c-0.77,1.64-2.9401,0.84-4.3301,1.07c-13.98-0.06-27.96-0.06-41.9399-0.07C1325.8101,154.35,1324.74,154.04,1323.8101,153.33z"/>
	<path fill="#7C210C" stroke="#7C210C" stroke-width="0.494" d="M407.16,203.45c84.76,0.13,169.53,0.01,254.3,0.06
		c0.08,16.97-0.1,33.94,0.09,50.91l-0.57-0.02c-0.37-0.24-1.12-0.72-1.49-0.95c0.05-3.05,0.2-6.09,0.03-9.13
		c-0.56-13.06,0.39-26.16-0.52-39.21c-16.67-0.74-33.37-0.14-50.06-0.33c-64.65,0.07-129.3-0.12-193.96,0.1
		c-1.79,0.15-3.86-0.33-5.42,0.78c-1.11,2.95-0.71,6.2-0.8,9.29c0.17,11.71-0.17,23.44,0.14,35.14c-0.25,2.23,1.78,3.27,3.32,4.36
		c-1.77-0.01-3.52-0.03-5.28-0.05C407.05,237.42,406.65,220.42,407.16,203.45z"/>
	<path fill="#7C210C" stroke="#7C210C" stroke-width="0.494" d="M915.12,916.06c0.05-0.29,0.16-0.87,0.21-1.17
		c17.06,1.72,34.28,0.04,51.38,0.98c-16.27,0.05-32.55-0.07-48.82,0.03c-2.28-0.25-2.06,2.39-2.06,3.89
		c0.21,15.6-0.26,31.21,0.26,46.8l-0.03,0.11c-17,0.18-34.01-0.08-51.01,0.14V966.41c0.41,0.02,1.23,0.06,1.64,0.08
		c14.43,0.1,28.87-0.09,43.3,0.06c1.72-0.08,3.53,0.17,5.19-0.49c1.04-4.23,0.18-8.72,0.44-13.05
		C915.39,940.69,916.17,928.34,915.12,916.06z"/>
	<path fill="#941800" stroke="#941800" stroke-width="0.494" d="M409.56,205.66c1.56-1.11,3.63-0.63,5.42-0.78
		c64.66-0.22,129.31-0.03,193.96-0.1c16.69,0.19,33.39-0.41,50.06,0.33c0.91,13.05-0.04,26.15,0.52,39.21
		c0.17,3.04,0.02,6.08-0.03,9.13c0.37,0.23,1.12,0.71,1.49,0.95c0.3,1.5,0.47,3.03,0.5,4.57c-0.06,15.4-0.01,30.81-0.04,46.21
		c-50.87,0.27-101.76,0.02-152.63,0.13c-0.06-16.97,0.06-33.94-0.06-50.91c-32.18,0.05-64.36-0.04-96.53,0.05
		c-1.54-1.09-3.57-2.13-3.32-4.36c-0.31-11.7,0.03-23.43-0.14-35.14C408.85,211.86,408.45,208.61,409.56,205.66z"/>
	<path fill="#941800" stroke="#941800" stroke-width="0.494" d="M356.31,254.32c16.88,0.17,33.75,0.01,50.63,0.08
		c0.23,16.97,0.03,33.93,0.1,50.9c-16.76,0-33.52-0.04-50.28,0.01c-0.46-16.92,0.37-33.89-0.43-50.79L356.31,254.32z"/>
	<path fill="#941800" stroke="#941800" stroke-width="0.494" d="M305.95,305.98c16.72-0.1,33.47,0.42,50.18-0.22
		c0.06,33.76,0.04,67.53,0.01,101.29c-16.71,0.01-33.42-0.04-50.13,0.02C306.04,373.37,306.14,339.67,305.95,305.98z"/>
	<path fill="#FEC188" stroke="#FEC188" stroke-width="0.494" d="M406.94,254.4c1.76,0.02,3.51,0.04,5.28,0.05
		c32.17-0.09,64.35,0,96.53-0.05c0.12,16.97,0,33.94,0.06,50.91c50.87-0.11,101.76,0.14,152.63-0.13
		c-0.21,16.83,0.07,33.67-0.13,50.5c-14.12-0.16-28.24,0.15-42.35-0.12c-5.01-0.14-9.98,0.5-14.97,0.68c-14.69,0-29.39-0.02-44.08,0
		c-0.56,7.91-0.12,15.85-0.25,23.77c0.1201,8.96-0.27,17.93,0.2401,26.88c7.03,0.69,14.09,0.22,21.14,0.34
		c9.8-0.13,19.61,0.38,29.4-0.41c1.26,1.17,2.9,1.62,4.61,1.51c14.67-0.02,29.34,0.07,44.01-0.02c2.51,0.51,3.6-2.24,3.43-4.28
		c0.13-15.94-0.18-31.88,0.2-47.81c14.1-0.08,28.2,0.01,42.3-0.08c2.42-0.02,4.84,0.19,7.25,0.49c0.25,30.46-0.01,60.91,0.13,91.37
		c-0.02,3.01,0.15,6.04-0.3,9.04c-0.95,1.19-2.75,0.73-4.06,0.95c-15.53-0.12-31.06-0.1-46.59-0.06c-16.97-0.02-33.93-0.02-50.9,0
		c-0.33,16.04,0.08,32.11-0.16,48.15c0.16,2.41-2.68,2.41-4.36,2.39c-44.65-0.03-89.31,0.02-133.96-0.01
		c-4.76,0.02-9.52,0.21-14.25-0.3c0.26-16.73,0.08-33.46,0.09-50.2c-16.93-0.1-33.86-0.02-50.78-0.04
		c-0.01,17.02-0.15,34.03,0.07,51.05c-0.34,0.11-1.02,0.32-1.36,0.42c16.97-0.49,33.96,0.03,50.94-0.29
		c0.58,2.6,0.96,5.24,0.88,7.91c-0.23,14.22,0.08,28.44-0.18,42.66c-16.77,0.02-33.54-0.07-50.32,0.06
		c-16.94-0.12-33.89-0.07-50.84-0.04c-0.16-29.58-0.01-59.16-0.07-88.74c-0.12-4.25,0.41-8.54-0.37-12.76
		c-4.56-0.75-9.18-0.33-13.78-0.41c-12.26-0.06-24.52,0.09-36.78-0.07c0.09-16.87,0.26-33.76-0.09-50.64h0.81
		c16.71-0.06,33.42-0.01,50.13-0.02c0.03-33.76,0.05-67.53-0.01-101.29c0.16-0.11,0.47-0.34,0.63-0.45
		c16.76-0.05,33.52-0.01,50.28-0.01C406.97,288.33,407.17,271.37,406.94,254.4 M451.91,356.26c-14.9-0.04-29.81-0.06-44.71,0.02
		c-1.06,4.19,0.11,8.44,0.04,12.66c-0.04,12.58-0.05,25.16,0.04,37.74c3.87,0.92,7.86,0.52,11.8,0.56
		c12.92,0.01,25.84,0.01,38.77-0.01c15.36-0.01,30.73-0.04,46.09,0.01c1.42-0.38,4.57,0.86,4.88-1.01l1.33,0.04
		c0.44-14.77,0.01-29.56,0.19-44.34c-0.11-1.86,0.32-4.16-1.59-5.25c-0.07-0.26-0.19-0.79-0.26-1.05
		c-15.12-0.47-30.29-0.01-45.43-0.24C459.3,355.18,455.65,356.24,451.91,356.26z"/>
	<path fill="#FEC188" stroke="#FEC188" stroke-width="0.494" d="M611.46,509.07c1.88,0.03,3.8,0.14,5.6,0.81
		c2.1-0.97,4.37-0.73,6.56-0.19c6.71-1.05,13.53-0.25,20.3-0.49c5.6,0.33,11.53-1.03,16.84,1.34c1.01,4.75,0.53,9.62,0.6,14.44
		c0.08,11.63-0.14,23.25,0.13,34.88c-16.59-0.44-33.19-0.03-49.78-0.21C611.41,542.79,611.9,525.93,611.46,509.07z"/>
	<path fill="#D99C65" stroke="#D99C65" stroke-width="0.494" d="M660.98,254.4l0.57,0.02c16.94,0.09,33.9-0.25,50.84,0.16
		c-0.11,33.78,0.05,67.55-0.08,101.32c16.99,0.87,34.08-0.26,51.08,0.59c-0.34,33.77,0.04,67.56-0.18,101.33
		c-16.97,0.32-33.97-0.41-50.91,0.37c0.17,33.76-0.05,67.53,0.11,101.3c-16.95,0.49-33.93-0.01-50.8799,0.25
		c-0.09,16.62-0.1201,33.25,0.0099,49.87c-1.15,0.23-2.31,0.46-3.46,0.63c-78.36,0.15-156.75,0-235.12,0.08
		c-2.97-0.12-6.07,0.61-8.92-0.49c-2.25-1.21-4.58,0.32-6.91,0.07c-0.18-16.72-0.15-33.45,0-50.17c16.78-0.13,33.55-0.04,50.32-0.06
		h0.39c50.89-0.08,101.79,0.14,152.68-0.11c-0.1-16.62-0.19-33.26,0.05-49.88c0.83,1.25,0.75,2.83,0.83,4.28
		c-0.04,15.22-0.13,30.45,0.04,45.68l0.27,0.01c16.59,0.18,33.19-0.23,49.78,0.21c-0.27-11.63-0.05-23.25-0.13-34.88
		c-0.07-4.82,0.41-9.69-0.6-14.44c-0.07-0.36-0.21-1.07-0.29-1.43l0.9301-0.85c0.08-16.78,0.02-33.56,0.02-50.33
		c15.53-0.04,31.06-0.06,46.59,0.06c1.31-0.22,3.11,0.24,4.06-0.95c0.45-3,0.28-6.03,0.3-9.04c-0.14-30.46,0.12-60.91-0.13-91.37
		c-2.41-0.3-4.83-0.51-7.25-0.49c-14.1,0.09-28.2,0-42.3,0.08c-0.35,0-1.04,0-1.39,0.01l0.01-0.55c0.2-16.83-0.08-33.67,0.13-50.5
		c0.03-15.4-0.02-30.81,0.04-46.21C661.45,257.43,661.28,255.9,660.98,254.4z"/>
	<path fill="#D99C65" stroke="#D99C65" stroke-width="0.494" d="M1322.91,305.35c16.52-0.07,33.0399,0.21,49.5499-0.13l1.48,0.05
		c-0.4199,8.89-0.11,17.8-0.1899,26.7c-0.03,58.91,0.05,117.83-0.05,176.74c-16.26,0.11-32.5199-0.05-48.7699,0.04
		c-1.9-0.37-2.3301,1.86-2.14,3.23c0,15.81,0.0299,31.61-0.02,47.42c-26.59-0.55-53.1801,0.1-79.78-0.31
		c-6.85,0.1299-13.71,0.3199-20.5599,0.21c0.7899-15.08-0.0701-30.19,0.35-45.27c-0.0801-1.89,0.75-4.53,3.1699-3.94
		c15.14,0.52,30.3201-0.57,45.4301,0.61c0.16-0.44,0.46-1.34,0.62-1.79l0.25-0.78c1.09-3.97,0.62-8.11,0.66-12.16
		c-0.01-12.7-0.05-25.39,0.0599-38.08c16.61-0.08,33.22,0.01,49.8301-0.04C1322.97,407.02,1322.75,356.18,1322.91,305.35z"/>
	<path fill="#D99C65" stroke="#D99C65" stroke-width="0.494" d="M1170.1899,559.67c16.55,0,33.0901,0.01,49.64-0.01
		c0.4701,16.45,0.4401,32.92-0.08,49.36c-3.85,1-7.85,0.6-11.77,0.62c-11,0.02-22,0.02-32.99-0.07c-1.77-0.09-3.47,0.37-5.0599,1.01
		C1170.62,593.63,1170.1,576.63,1170.1899,559.67z"/>
	<path fill="#FFC289" stroke="#FFC289" stroke-width="0.494" d="M966.33,254.49l0.54-0.01c0,12.85-0.01,25.7,0.01,38.55
		c0.06,3.97-0.36,7.98,0.33,11.92c4.2,0.9,8.57,0.21,12.84,0.4c80.17,0.07,160.34-0.15,240.5101,0.11
		c1.1-4.08,0.5599-8.33,0.6499-12.49c0.05-12.85-0.08-25.7,0.0701-38.55c16.85-0.03,33.6899,0,50.53-0.01
		c0.36,16.94-0.1101,33.89,0.2699,50.84c16.9401,0.25,33.89,0.02,50.8301,0.1c-0.16,50.83,0.0599,101.67-0.11,152.5
		c-16.6101,0.05-33.2201-0.04-49.8301,0.04c-0.11,12.69-0.0699,25.38-0.0599,38.08c-0.04,4.05,0.4299,8.19-0.66,12.16
		c-0.1899-16.74-0.04-33.48-0.0699-50.22c-16.6801,0-33.3601,0.01-50.04,0l-1.13-0.01c0.01,16.98-0.0601,33.96,0.03,50.93
		c-50.86-0.12-101.7201,0.14-152.5801-0.13c0.05,16.99,0.01,33.98,0.02,50.97c33.9,0,67.8,0,101.71,0
		c-0.09,16.96,0.4301,33.96-0.2599,50.91c-33.8501-0.07-67.6901-0.02-101.53-0.02c-16.72-0.03-33.4401-0.01-50.16,0
		c-0.95-3.11-0.69-6.37-0.66-9.57c0.06-13.63-0.07-27.27,0.04-40.91c-1.89-0.21-3.77-0.4-5.65-0.43
		c-15.1299,0-30.2599,0.11-45.39-0.04c0.05-82.54,0.01-165.08,0.03-247.62C966.07,292.83,966.45,273.66,966.33,254.49
		 M1017.64,356.13c-0.13,17.01-0.19,34.03,0.02,51.04c16.47-0.01,32.95,0.13,49.42-0.06c0.39-0.3,1.16-0.89,1.55-1.18
		c-0.3199-16.49-0.12-32.99-0.12-49.48C1051.5601,355.87,1034.59,356.5,1017.64,356.13 M1069.29,356.4l-0.6001,0.53
		c-0.37,12.02-0.1,24.08-0.21,36.12c0.14,4.57-0.37,9.2,0.51,13.74c7.28,0.92,14.63-0.06,21.95,0.44
		c9.5-1.21,19.15,1.26,28.5801-0.78c-0.17-16.62-0.15-33.24,0.03-49.85c-4.8-0.69-9.65-0.24-14.4701-0.36
		C1093.15,356.35,1081.21,356,1069.29,356.4 M1170.3,356.25c-0.02,16.87,0.01,33.74-0.03,50.61
		c10.5499,0.75,21.1799,0.12,31.76,0.33c6.2999-0.37,12.6599,0.55,18.9199-0.4l1.13,0.11c1.27,0.12,2.5601,0.22,3.87,0.28
		c9.3201-0.62,18.67,0.48,27.99-0.37c5.9401-0.15,11.89,1.02,17.8401,0.16c0.2899-10.33-0.12-20.66,0.33-30.97
		c-0.72-6.58,0.47-13.18-0.4-19.74c-16.52-0.15-33.0499,0.2-49.5599-0.19l-1.02,0.3C1204.1899,356.04,1187.24,356.3,1170.3,356.25
		 M1017.61,457.92c-0.01,16.96-0.01,33.92,0,50.87c16.89,0.01,33.78,0.01,50.67,0c0.4399-16.94,0.08-33.91,0.1899-50.87
		C1051.51,457.9,1034.5601,457.92,1017.61,457.92z"/>
	<path fill="#FFC289" stroke="#FFC289" stroke-width="0.494" d="M1324.4,663.27c15.83-0.3,31.6699-0.23,47.5-0.02
		c-0.37,13.89,0.21,27.79,0.08,41.69c0.04,3.29-0.5699,7.89,3.1901,9.45c15.87-0.43,31.7699-0.16,47.6599-0.11
		c0.2201,15.79,0.3201,31.59-0.0299,47.3799c-14.9501-0.0099-29.9-0.02-44.8501-0.05c-1.5699,0.17-3.4199-0.36-4.73,0.68
		c-0.5599,1.4901-0.5699,3.12-0.62,4.71c-0.0399,15.22,0.0801,30.43,0.04,45.65c-13.1901,0.12-26.39,0.0099-39.59-0.01
		c-3.25,0.08-6.74-0.52-9.67,1.21l-0.51,0.23c-0.27,0.23-0.8199,0.67-1.09,0.9c-0.28,16.22,0.0499,32.45-0.15,48.68
		c-16.22,0.21-32.4401-0.14-48.66,0.11c-0.22,0.3-0.6599,0.91-0.89,1.21l-0.1699,0.48c-1.77,3.98-0.76,8.39-0.85,12.59
		c-0.05,12.28-0.0601,24.57-0.3501,36.85c-16.7999,0.6-33.62-0.01-50.4199,0.3c-0.8501,5.91,0.0399,11.87-0.26,17.82
		c-0.37,9.65,0.15,19.31,0.13,28.97c0.0699,1.4-0.25,3.77-2.15,3.64c-13.6801,0.05-27.36,0.06-41.03-0.03
		c-2.24-0.0099-4.46,0.14-6.65,0.44l-0.0499,0.75c-0.1801,16.81,0.1,33.62-0.13,50.42l-0.02,0.34c-12.37,0.11-24.73,0.02-37.09,0.06
		c-4.55,0.04-9.11-0.3-13.61,0.39c0.08,15.67-0.0601,31.34,0.0699,47.02c0.28,1.5599-0.42,3.75-2.42,3.4299
		c-66.87,0.16-133.7399-0.1799-200.61,0.12c-1.1-3.7799-0.7-7.72-0.71-11.58c0-12.96,0.02-25.92-0.05-38.88
		c-2.88-0.59-5.82-0.64-8.7401-0.53c-13.91,0.09-27.8199-0.05-41.73,0.05c-1.21-6.49,0.25-13.05-0.42-19.58
		c-0.02-10.4-0.29-20.82,0.23-31.21c17-0.22,34.01,0.04,51.01-0.14c-0.49,13.74-0.08,27.49-0.23,41.24
		c-0.08,3.24,0.03,6.48,0.3,9.72c33.8-0.16,67.6,0.19,101.39-0.14c0.31-16.82,0.01-33.65,0.17-50.47
		c-10.2-0.79-20.44-0.13-30.66-0.34c-23.66-0.02-47.3101-0.03-70.97-0.01l0.03-0.11c2.06-4.2401,0.66-9.07,0.97-13.58
		c0.29-11.86-0.56-23.77,0.36-35.6c12.5-0.69,25.05-0.11,37.57-0.35c3.9-0.25,8.19,1.01,11.72-1.19l0.11-0.01
		c16.93,0.03,33.91-0.54,50.82,0.27c-0.15,14.97,0.06,29.95-0.09,44.93c-0.09,1.91,0.35,3.79,0.9,5.63c32.53-0.2,65.07,0,97.6-0.11
		c2.21,0.51,3.7799-1.47,3.4099-3.56c-0.09-15.71,0.04-31.42-0.0599-47.13c16.95-0.11,33.91-0.02,50.86-0.05
		c-0.0601-16.97,0.0699-33.95-0.0601-50.92c16.9601,0.12,33.9301,0.04,50.9,0.04l1.0701-0.06c0.49-16.51,0.0699-33.05,0.2-49.57
		c16.83-0.24,33.7,0.5,50.51-0.37c0.85-6.32,0.33-12.7,0.46-19.04c-0.0399-26.91,0.03-53.82-0.02-80.73
		c1.91-0.72,3.87-0.6,5.6801,0.39c1.88-0.8,3.84-1.56,5.9399-1.44c8.04,0.07,16.0801,0.03,24.1201,0.04
		c1.6799-0.19,2.97,0.96,4.2999,1.81c1.24-0.63,2.49-1.25,3.75-1.86c2.05,0.12,4.55,0.92,6.14-0.92c1.37-0.98,0.98-2.78,1.13-4.21
		C1324.41,693.76,1324.25,678.51,1324.4,663.27z"/>
	<path fill="#FFC289" stroke="#FFC289" stroke-width="0.494" d="M0,915.9c16.96-0.36,33.93,0.04,50.89-0.2
		c16.97-0.01,33.94-0.2,50.9,0.14c-0.12,16.81-0.02,33.62-0.05,50.44v0.3799c-0.08,16.97,0.07,33.95-0.09,50.92
		c-33.89,0.06-67.77,0-101.65,0.03V915.9z"/>
	<path fill="#FFC289" stroke="#FFC289" stroke-width="0.494" d="M1729.96,1017.41l1.1001,0.07
		c0.1599,16.89-0.01,33.79,0.1299,50.6801c16.3701,0.5399,32.78,0.21,49.17,0.1899c0.8101-5.09,0.29-10.25,0.38-15.37
		c0.0601-11.7999-0.02-23.6,0.04-35.39c33.9099,0.02,67.8199-0.02,101.73,0.02c0.01,16.92,0.16,33.86-0.0701,50.79
		c-16.7699,0.23-33.5399-0.03-50.2999,0.1c-0.96,6.47-0.28,13.04-0.47,19.55c-0.17,10.49,0.33,21-0.25,31.48
		c-33.7101-0.2001-67.4301-0.03-101.14-0.0801c-1.03,7.8201-0.0701,15.6901-0.41,23.54c-0.26,8.9301,0.27,17.88-0.24,26.8
		c-1.3199,0.89-3.09,0.37-4.55,0.5699c-15.33-0.11-30.6599-0.02-45.98-0.0499c-0.12-16.55,0.05-33.1101-0.09-49.66
		c-11.64-0.59-23.3101-0.11-34.95-0.24c-4.8601,0-9.7201-0.2101-14.55,0.2999c-0.46,16.52,0.14,33.05-0.3,49.5701h-0.84v-1.48
		c0.0699-16.4701-0.12-32.9301,0.1-49.39c16.92,0.1799,33.86,0.22,50.78-0.02c16.28-0.25,32.58,0.23,48.85-0.17
		c2.25,0.15,1.52-2.86,1.8301-4.23c-0.01-15.02-0.02-30.04,0-45.0599c-10.28-0.8101-20.6001,0.0599-30.88-0.3
		c-6.29,0.0599-12.5901-0.27-18.8401,0.42c0,12.3199,0.03,24.6399,0,36.96c-0.08,3.92,0.48,7.95-0.8199,11.75
		c-0.3201-16.48,0-32.97-0.16-49.45v-0.6901c5.28,0.27,10.5701,0.8,15.86,0.14c11.76,0.5699,23.55,0.13,35.3301-0.26
		C1730,1051.47,1730.86,1034.4,1729.96,1017.41z"/>
	<path fill="#FFC289" stroke="#FFC289" stroke-width="0.494" d="M1577.36,1220.99c0.46,16.97-0.09,33.96,0.29,50.9301
		c16.83,0.01,33.6799-0.3,50.5,0.2699c0.27,16.8401-0.03,33.6901,0.15,50.54c16.87,0.22,33.76-0.4199,50.61,0.3101
		c0.59,16.88,0.3099,33.8099,0.21,50.71c-16.99,0.03-33.98-0.02-50.97,0.02c0.01,16.9-0.04,33.8099,0.03,50.71
		c-16.9601-0.35-33.9601,0.62-50.88-0.5c0.12-16.75,0.0699-33.49,0.0299-50.24c-0.24-16.91,0.37-33.83-0.26-50.72
		c-16.8899-0.1801-33.8099-0.41-50.6799,0.1l-0.01-1.36c-0.0601-16.27,0.05-32.54-0.05-48.8101v-0.7899
		c16.8401-0.41,33.7101,0.0599,50.5601-0.24c-0.01-16.55-0.13-33.11,0.0499-49.66L1577.36,1220.99z"/>
	<path fill="#975747" stroke="#975747" stroke-width="0.494" d="M356.33,254.52c0.8,16.9-0.03,33.87,0.43,50.79
		c-0.16,0.11-0.47,0.34-0.63,0.45c-16.71,0.64-33.46,0.12-50.18,0.22c0.19,33.69,0.09,67.39,0.06,101.09h-0.81
		c-0.29-33.96-0.25-67.94-0.02-101.9c16.91-0.36,33.83,0.09,50.74-0.25c0.03-13.63-0.01-27.26,0.01-40.9
		C355.94,260.85,355.73,257.65,356.33,254.52z"/>
	<path fill="#AD8525" stroke="#AD8525" stroke-width="0.494" d="M1372.46,305.22c2.67-2.26,6.28-1.38,9.49-1.49
		c14.5601,0.35,29.15-0.5,43.6901,0.45c0.91,10.59,0.42,21.22,0.5499,31.83c0.17,6.26-0.62,12.64,0.9701,18.78
		c22.6,0.62,45.24,0.09,67.85,0.27c84.33-0.01,168.66,0.04,252.99-0.02c10.26-0.17,20.54,0.42,30.8-0.28
		c1.23-12.85,0.33-25.81,0.5-38.71c0.24-3.57-0.8301-7.58,1.2799-10.76c0.49,16.94,0.1001,33.9,0.2101,50.85
		c-6.6001,0.23-13.1901,0.08-19.77,0.12c-112.16-0.04-224.3201,0.09-336.48-0.07c-0.04-16.92,0.0399-33.84-0.04-50.76
		c-16.86-0.17-33.71,0.15-50.5601-0.16L1372.46,305.22z"/>
	<path fill="#FEFEFE" stroke="#FEFEFE" stroke-width="0.494" d="M451.91,356.26c3.74-0.02,7.39-1.08,11.15-0.87
		c15.14,0.23,30.31-0.23,45.43,0.24c-16.86,0.42-33.75,0-50.62,0.21l0.01,1.5c-0.03,16.01,0,32.01-0.02,48.02
		c-0.01,0.46-0.01,1.4-0.01,1.87c-12.93,0.02-25.85,0.02-38.77,0.01c-3.94-0.04-7.93,0.36-11.8-0.56
		c-0.09-12.58-0.08-25.16-0.04-37.74c0.07-4.22-1.1-8.47-0.04-12.66C422.1,356.2,437.01,356.22,451.91,356.26z"/>
	<path fill="#FEFEFE" stroke="#FEFEFE" stroke-width="0.494" d="M603.99,356.24c4.99-0.18,9.96-0.82,14.97-0.68
		c14.11,0.27,28.23-0.04,42.35,0.12l-0.01,0.55c-9.09-0.86-18.22,0.23-27.31-0.31c-7.8,0.33-15.6-0.3-23.4,0.12
		c-0.21,16.93,0.12,33.86-0.15,50.78c-9.79,0.79-19.6,0.28-29.4,0.41c-7.05-0.12-14.11,0.35-21.14-0.34
		c-0.51-8.95-0.12-17.92-0.2401-26.88c0.13-7.92-0.31-15.86,0.25-23.77C574.6,356.22,589.3,356.24,603.99,356.24z"/>
	<path fill="#FEFEFE" stroke="#FEFEFE" stroke-width="0.494" d="M610.36,506.08c0.24-16.04-0.17-32.11,0.16-48.15
		c0.04,15.35,0.03,30.71,0.01,46.06c0.09,1.56-0.42,3.26,0.35,4.72c16.5,0.47,33.07-0.26,49.59,0.4c0.08,0.36,0.22,1.07,0.29,1.43
		c-5.31-2.37-11.24-1.01-16.84-1.34c-6.77,0.24-13.59-0.56-20.3,0.49c-2.19-0.54-4.46-0.78-6.56,0.19c-1.8-0.67-3.72-0.78-5.6-0.81
		c0.44,16.86-0.05,33.72,0.25,50.58l-0.27-0.01c-0.17-15.23-0.08-30.46-0.04-45.68c-0.08-1.45,0-3.03-0.83-4.28l-0.47-0.75
		c-10.88-0.44-22.05-0.06-33.05-0.19c-39.32-0.1-78.66,0.23-117.98-0.16c-0.5,0.49-0.99,0.99-1.47,1.5
		c0.56,16.52,0.09,33.06,0.24,49.59h-0.39c0.26-14.22-0.05-28.44,0.18-42.66c0.08-2.67-0.3-5.31-0.88-7.91
		c-16.98,0.32-33.97-0.2-50.94,0.29c0.34-0.1,1.02-0.31,1.36-0.42c16.67-0.39,33.37,0.18,50.04-0.28c0.14-0.13,0.43-0.4,0.58-0.53
		c4.73,0.51,9.49,0.32,14.25,0.3c44.65,0.03,89.31-0.02,133.96,0.01C607.68,508.49,610.52,508.49,610.36,506.08z"/>
	<path fill="#427773" stroke="#427773" stroke-width="0.494" d="M457.87,355.84c16.87-0.21,33.76,0.21,50.62-0.21
		c0.07,0.26,0.19,0.79,0.26,1.05c0.31,16.51,0.16,33.04,0.07,49.55c-0.31,1.87-3.46,0.63-4.88,1.01
		c-15.36-0.05-30.73-0.02-46.09-0.01c0-0.47,0-1.41,0.01-1.87c7.35,0.69,14.74,0.24,22.12,0.36c9.17-0.1,18.35,0.16,27.53-0.13
		c0.31-16.09,0.09-32.18,0.08-48.27c-4.51-0.72-9.06-0.36-13.59-0.18c-12.04-0.11-24.09-0.14-36.12,0.2L457.87,355.84z"/>
	<path fill="#017A99" stroke="#017A99" stroke-width="0.494" d="M610.59,356.04c7.8-0.42,15.6,0.21,23.4-0.12
		c9.09,0.54,18.22-0.55,27.31,0.31c-0.08,16.86,0.25,33.74-0.17,50.59c-16.9-0.01-33.8-0.04-50.69,0
		C610.71,389.9,610.38,372.97,610.59,356.04z"/>
	<path fill="#B9BFA6" stroke="#B9BFA6" stroke-width="0.494" d="M661.3,356.23c0.35-0.01,1.04-0.01,1.39-0.01
		c-0.38,15.93-0.07,31.87-0.2,47.81c0.17,2.04-0.92,4.79-3.43,4.28c-14.67,0.09-29.34,0-44.01,0.02c-1.71,0.11-3.35-0.34-4.61-1.51
		c16.89-0.04,33.79-0.01,50.69,0C661.55,389.97,661.22,373.09,661.3,356.23z"/>
	<path fill="#009909" stroke="#009909" stroke-width="0.494" d="M1017.64,356.13c16.95,0.37,33.92-0.26,50.87,0.32
		c0,16.49-0.2,32.99,0.12,49.48c-16.48-0.66-32.99-0.17-49.49-0.23c-0.91-8.19-0.3-16.45-0.46-24.67
		c0.18-7.93-0.48-15.89,0.66-23.76C1018.92,356.98,1018.06,356.41,1017.64,356.13z"/>
	<path fill="#009909" stroke="#009909" stroke-width="0.494" d="M1170.3,356.25c16.9399,0.05,33.8899-0.21,50.83,0.12l-0.24,0.2
		c-0.88,0.58-1.6801,1.31-1.37,2.47c0.47,12.66-0.04,25.33,0.1899,38c0.11,3.17-0.2999,6.52,1.14,9.48l0.1,0.27
		c-6.26,0.95-12.62,0.03-18.9199,0.4c-10.5801-0.21-21.2101,0.42-31.76-0.33C1170.3101,389.99,1170.28,373.12,1170.3,356.25z"/>
	<path fill="#C2FEC5" stroke="#C2FEC5" stroke-width="0.494" d="M1221.13,356.37l1.02-0.3c-0.04,16.94,0.16,33.89-0.0701,50.83
		l-1.13-0.11l-0.1-0.27c0.28-16.64,0.1801-33.3,0.04-49.95L1221.13,356.37z"/>
	<path fill="#007A99" stroke="#007A99" stroke-width="0.494" d="M457.88,357.34c12.03-0.34,24.08-0.31,36.12-0.2
		c4.53-0.18,9.08-0.54,13.59,0.18c0.01,16.09,0.23,32.18-0.08,48.27c-9.18,0.29-18.36,0.03-27.53,0.13
		c-7.38-0.12-14.77,0.33-22.12-0.36C457.88,389.35,457.85,373.35,457.88,357.34z"/>
	<path fill="#D4D1B2" stroke="#D4D1B2" stroke-width="0.494" d="M508.75,356.68c1.91,1.09,1.48,3.39,1.59,5.25
		c-0.18,14.78,0.25,29.57-0.19,44.34l-1.33-0.04C508.91,389.72,509.06,373.19,508.75,356.68z"/>
	<path fill="#28840D" stroke="#28840D" stroke-width="0.494" d="M1017.64,356.13c0.42,0.28,1.28,0.85,1.7,1.14
		c-1.14,7.87-0.48,15.83-0.66,23.76c0.16,8.22-0.45,16.48,0.46,24.67c16.5,0.06,33.01-0.43,49.49,0.23
		c-0.39,0.29-1.16,0.88-1.55,1.18c-16.47,0.19-32.95,0.05-49.42,0.06C1017.45,390.16,1017.51,373.14,1017.64,356.13z"/>
	<path fill="#1E8126" stroke="#1E8126" stroke-width="0.494" d="M1219.52,359.04c-0.3101-1.16,0.49-1.89,1.37-2.47
		c0.14,16.65,0.24,33.31-0.04,49.95c-1.4399-2.96-1.03-6.31-1.14-9.48C1219.48,384.37,1219.99,371.7,1219.52,359.04z"/>
	<path stroke="#000000" stroke-width="0.494" d="M407.1,457.92c16.92,0.02,33.85-0.06,50.78,0.04c-0.01,16.74,0.17,33.47-0.09,50.2
		c-0.15,0.13-0.44,0.4-0.58,0.53c-16.67,0.46-33.37-0.11-50.04,0.28C406.95,491.95,407.09,474.94,407.1,457.92z"/>
	<path stroke="#000000" stroke-width="0.494" d="M610.52,457.93c16.97-0.02,33.93-0.02,50.9,0c0,16.77,0.06,33.55-0.02,50.33
		l-0.9301,0.85c-16.52-0.66-33.09,0.07-49.59-0.4c-0.77-1.46-0.26-3.16-0.35-4.72C610.55,488.64,610.56,473.28,610.52,457.93z"/>
	<path stroke="#000000" stroke-width="0.494" d="M1017.61,457.92c16.9501,0,33.9-0.02,50.86,0c-0.11,16.96,0.25,33.93-0.1899,50.87
		c-16.89,0.01-33.78,0.01-50.67,0C1017.6,491.84,1017.6,474.88,1017.61,457.92z"/>
	<path stroke="#000000" stroke-width="0.494" d="M1222.14,457.91c16.6799,0.01,33.36,0,50.04,0
		c0.0299,16.74-0.12,33.48,0.0699,50.22c-16.72-0.37-33.48,0.58-50.1899-0.33C1221.76,491.17,1221.47,474.52,1222.14,457.91z"/>
	<path stroke="#000000" stroke-width="0.494" d="M457.6,510.08c0.48-0.51,0.97-1.01,1.47-1.5c39.32,0.39,78.66,0.06,117.98,0.16
		c11,0.13,22.17-0.25,33.05,0.19l0.47,0.75c-0.24,16.62-0.15,33.26-0.05,49.88c-50.89,0.25-101.79,0.03-152.68,0.11
		C457.69,543.14,458.16,526.6,457.6,510.08z"/>
	<path stroke="#000000" stroke-width="0.494" d="M1068.46,508.7c50.86,0.27,101.7201,0.01,152.5801,0.13
		c0.08,16.94,0.02,33.88,0.0299,50.83h-1.24c-16.5499,0.02-33.09,0.01-49.64,0.01c-33.9099,0-67.8099,0-101.71,0
		C1068.47,542.68,1068.51,525.69,1068.46,508.7z"/>
	<path fill="#321A04" stroke="#321A04" stroke-width="0.494" d="M1221.01,457.9l1.13,0.01c-0.67,16.61-0.38,33.26-0.08,49.89
		c16.71,0.91,33.47-0.04,50.1899,0.33l-0.25,0.78c-16.99,0.01-33.98,0.12-50.96-0.08C1220.95,491.86,1221.02,474.88,1221.01,457.9z"
		/>
	<path fill="#C29873" stroke="#C29873" stroke-width="0.494" d="M1221.04,508.83c16.98,0.2,33.97,0.09,50.96,0.08
		c-0.16,0.45-0.46,1.35-0.62,1.79c-15.11-1.18-30.29-0.09-45.4301-0.61c-2.4199-0.59-3.25,2.05-3.1699,3.94
		c-0.42,15.08,0.4399,30.1899-0.35,45.27l-0.04,0.48l-1.3201-0.1201C1221.0601,542.71,1221.12,525.77,1221.04,508.83z"/>
	<path fill="#DF7B9A" stroke="#DF7B9A" stroke-width="0.494" d="M1222.4301,559.3c6.85,0.11,13.71-0.08,20.5599-0.21
		c26.6,0.41,53.1901-0.2401,79.78,0.31c16.97,0.34,33.95,0.06,50.9199,0.1l0.03,0.53c-50.4399-0.5601-100.89-0.14-151.33-0.25
		L1222.4301,559.3z"/>
	<path fill="#E56D88" stroke="#E56D88" stroke-width="0.494" d="M1219.83,559.66h1.24c0.02,16.91-0.33,33.84,0.1901,50.75
		c-0.49,0.15-1.45,0.46-1.9301,0.6201c-16.46-0.67-32.95,0.17-49.3999-0.45c1.59-0.64,3.2899-1.1,5.0599-1.01
		c10.99,0.09,21.99,0.09,32.99,0.07c3.92-0.02,7.92,0.38,11.77-0.62C1220.27,592.58,1220.3,576.11,1219.83,559.66z"/>
	<path fill="#B4265E" stroke="#B4265E" stroke-width="0.494" d="M1221.0699,559.66l1.3201,0.1201c-0.12,15.42-0.12,30.85-0.04,46.27
		c-0.01,1.52-0.11,3.11-1.09,4.36C1220.74,593.5,1221.09,576.57,1221.0699,559.66z"/>
	<path fill="#C9008C" stroke="#C9008C" stroke-width="0.494" d="M1222.39,559.78c50.4399,0.11,100.89-0.3101,151.33,0.25
		c0.0801,16.79,0.0701,33.5699,0,50.36c50.89,0.31,101.79,0.03,152.6901,0.14c0.1,16.98-0.12,33.96,0.1,50.9399
		c33.85-0.15,67.7,0.05,101.55-0.1c0.3099,16.93,0.0599,33.88,0.12,50.82c26.9399,0.27,53.8899,0.04,80.84,0.12
		c23.86-0.09,47.73,0.16,71.6-0.13l-0.04,0.11c-1.75,3.31-0.75,7.15-0.9099,10.72c-0.02,81.16,0.0199,162.32-0.03,243.49
		c-16.66-0.23-33.33,0.04-49.99-0.16c0.34-33.76,0.11-67.55,0.13-101.32c-10.92-0.46-21.85-0.03-32.76-0.19
		c-5.9301,0.07-11.85-0.23-17.76,0.28c-0.28,28.65-0.24,57.27-0.42,85.92c-0.1,5.2,0.7001,10.41,0.02,15.61
		c-11.28,0.12-22.5699,0.01-33.85,0.04c-5.5701,0.06-11.17-0.32-16.7,0.48c-0.25,10.94-0.14,21.88-0.17,32.82
		c-0.09,5.88,0.5,11.79-0.39,17.64c-15.59,0.08-31.1899-0.13-46.77,0.02c-2.38-0.18-3.8199,2.22-3.47,4.37
		c0.01,14.3199-0.02,28.65,0.0699,42.98c-0.2699,1.28,0.49,3.85-1.63,3.54c-15.33,0.1699-30.6699-0.1-46,0.0699
		c-1.9299-0.21-3.6,1.38-3.33,3.3301c-0.11,15.6599-0.02,31.34-0.02,47.0099c-4.52,0.8401-9.11,0.4401-13.6699,0.4501
		c-27.3201,0.0699-54.64-0.02-81.9601,0.0499c-2.0699-0.0399-4.12-0.1899-6.15-0.33c-0.6399-16.86,0.04-33.74-0.33-50.6
		c-15.87-0.28-31.75,0.03-47.61-0.16c-2.41,0.2001-3.23-2.4-3.17-4.3099c-0.11-15.5,0.3201-31.02-0.1899-46.51
		c-15.52-0.1801-31.04-0.02-46.55-0.07c-2.13,0.2599-4.47-0.96-4.09-3.4c-0.42-15.58,0.24-31.18-0.3-46.76
		c-5.11-1.18-10.36-0.49-15.5299-0.62c-11.5901-0.08-23.1801,0.15-34.76-0.06c-0.6001-11.51-0.3501-23.04-0.17-34.56
		c0.11-5.3-0.67-10.64,0.17-15.91c1.48-3.91,0.75-8.14,0.87-12.21c0.0599-12.52-0.14-25.04,0.1-37.56
		c14.9-0.07,29.79,0.03,44.6899,0c1.5901,0.02,3.2101-0.3,4.5-1.32c0.13-0.13,0.39-0.39,0.53-0.52
		c0.3101-0.38,0.9501-1.13,1.26-1.5099c0.34-15.3-0.05-30.63,0.15-45.9301c-0.17-1.9,2.1-2.25,3.52-2.1
		c13.6899,0.42,27.4-0.07,41.09,0.18c1.9301,0.06,5.87,1.02,5.78-2.08c0.24-15.05-0.03-30.13,0-45.19
		c-0.17-1.86,1.0599-4,3.1899-3.54c14.01,0.02,28.03-0.04,42.05,0.05c1.7999,0,3.62-0.35,5.4-0.75l-0.8301-0.46
		c0.03-16.89,0.0801-33.79-0.01-50.68c-0.39-0.07-1.1699-0.19-1.5699-0.26c0.28-0.31,0.84-0.93,1.12-1.24
		c-16.28-0.58-32.59,0.43-48.85-0.45c-0.4-13.84-0.04-27.72-0.15-41.58c-0.29-2.5,0.99-5.66-1.23-7.5
		c-16.99-0.08-33.98-0.02-50.97-0.03l0.0099-0.66c17-0.36,34.01,0.1,51.01-0.17c-0.3199-0.33-0.95-0.98-1.26-1.3
		c-16.84,1.15-33.74,0.09-50.5699,0.91c-0.91,5.2-0.47,10.49-0.55,15.75c-0.0099,11.54,0.13,23.08,0.01,34.62
		c-16.75,1.13-33.59,0.03-50.37,0.58c-0.7999,10.24-0.3199,20.52-0.5,30.79c0.11,23.55,0,47.1-0.02,70.65
		c-9.9099,0.62-19.84-0.02-29.75,0.18c-6.59,0.09-13.1799,0.21-19.7599-0.03c0.0699-28.92,0.0299-57.84,0.0499-86.75
		c0.0801-4.58,0.1-9.17-0.48-13.71c-11.26-0.08-22.51,0.02-33.76-0.04c-5.58-0.07-11.1799,0.35-16.74-0.35
		c0.0699-33.31-0.04-66.62,0.03-99.93c11.5499-0.83,23.15-0.21,34.73-0.41c4.75-0.23,9.66,0.72,14.3199-0.5699
		c0.4801-0.16,1.4401-0.47,1.9301-0.6201c0.98-1.25,1.08-2.84,1.09-4.36C1222.27,590.63,1222.27,575.2,1222.39,559.78
		 M1425.46,713.82c-0.47,5.72-0.14,11.47-0.21,17.2c0.1899,10.1-0.35,20.22,0.1801,30.31c1-1.6,0.98-3.52,0.98-5.33
		c-0.28-11.01-0.17-22.03-0.0801-33.04C1426.23,719.91,1426.98,716.63,1425.46,713.82z"/>
	<path fill="#C9008C" stroke="#C9008C" stroke-width="0.494" d="M1679.37,1017.45c16.6901-0.19,33.39,0.29,50.0699-0.25
		l-0.0699,0.85c-1.14,8.93-0.3,18.0001-0.53,26.9901c-0.11,6.64,0.02,13.2899,0.1,19.9299c-0.2599,2.37-3.11,2.42-4.9099,2.4501
		c-14.38-0.0701-28.76-0.04-43.14-0.02c-0.6-0.8201-1.16-1.64-1.7001-2.4601c-0.1399-1.6499-0.25-3.2799-0.21-4.9099
		C1679.55,1045.85,1678.91,1031.64,1679.37,1017.45z"/>
	<path fill="#910067" stroke="#910067" stroke-width="0.494" d="M1068.4,610.56c33.84,0,67.6799-0.05,101.53,0.02
		c16.45,0.62,32.9399-0.22,49.3999,0.45c-4.6599,1.29-9.5699,0.34-14.3199,0.5699c-11.58,0.2-23.1801-0.42-34.73,0.41
		c-0.0701,33.31,0.0399,66.62-0.03,99.93c5.5601,0.7,11.16,0.28,16.74,0.35c11.25,0.06,22.5-0.04,33.76,0.04
		c0.58,4.54,0.5601,9.13,0.48,13.71c-0.02,28.91,0.02,57.83-0.0499,86.75l-0.3201,0.98c-2.0499,3.38-0.91,7.47-1.12,11.21
		c-0.14,12.83,0.26,25.68-0.17,38.51c-15.1799,0.39-30.37,0.07-45.5499,0.12c-1.38,0.14-3.27-0.37-3.8201,1.31
		c0.13,16.97,0,33.95,0.0601,50.92c-16.95,0.03-33.91-0.06-50.86,0.05c-0.15-33.93-0.04-67.85-0.0601-101.78
		c-16.97-0.07-33.9399,0.1-50.9-0.08C1068.45,746.21,1068.53,678.38,1068.4,610.56 M1068.67,611.06
		c0.3099,0.29,0.9299,0.87,1.24,1.15c31.6699,0.0099,63.36,0.0099,95.0299,0.0099c1.4-0.02,2.8501-0.17,4.16-0.7599
		C1135.64,610.91,1102.14,611.67,1068.67,611.06z"/>
	<path fill="#910067" stroke="#910067" stroke-width="0.494" d="M1779.67,723.01c0.1599-3.57-0.8401-7.41,0.9099-10.72
		c0.36,30.57,0.05,61.15,0.16,91.73c-0.01,54.19,0,108.37-0.01,162.55l-1.09-0.07C1779.6899,885.33,1779.65,804.17,1779.67,723.01z"
		/>
	<path fill="#910067" stroke="#910067" stroke-width="0.494" d="M1679.26,865.11c5.91-0.51,11.83-0.21,17.76-0.28
		c10.91,0.16,21.84-0.27,32.76,0.19c-0.02,33.77,0.21,67.56-0.13,101.32c-0.48,16.94-0.03,33.91-0.2101,50.86
		c-16.6799,0.54-33.3799,0.06-50.0699,0.25c-0.46,14.19,0.1801,28.4-0.39,42.58c-0.04,1.63,0.0701,3.26,0.21,4.9099
		c0.02,1.2101,0.03,2.4401,0.04,3.6801v0.6901c-1.14,1-1.6799,2.24-1.63,3.72c-0.01,14.9099,0.12,29.83-0.01,44.74
		c-12.1899,0.2-24.37,0.04-36.5499,0.12c-4.0601-0.02-8.16-0.34-12.15,0.54c10.36,0.7599,20.76,0.1699,31.14,0.37
		c6.4,0.22,12.87-0.55,19.22,0.59c-16.92,0.24-33.86,0.2-50.78,0.02c-0.22,16.46-0.03,32.9199-0.1,49.39
		c-16.65-0.0801-33.37,0.8999-49.98-0.55c-0.23,0.49-0.6901,1.47-0.9301,1.96c-0.37,16.49-0.09,33-0.13,49.5
		c-17.3199,0.28-34.6599-0.37-51.95,0.26c0.11,0.3101,0.33,0.9301,0.45,1.24l0.05,0.2201c-1.4,3.0199-0.92,6.4099-0.9301,9.6499
		c0.02,7.64,0.1101,15.29,0.03,22.9401c-0.11,5.5599,0.59,11.15-0.29,16.6799c-13.5599,0.13-27.1299-0.1599-40.6899,0.12
		c-3.26-0.08-6.53-0.49-9.71,0.37c-0.99,16.65-0.01,33.39-0.53,50.0601c0.42,0.4,1.26,1.22,1.6799,1.63v0.11
		c-33.8999-0.22-67.8099,0-101.72-0.11c0.11-34.0601-0.15-68.12,0.13-102.17c-9.91-0.7999-19.87-0.0599-29.7999-0.2999
		c-19.37-0.04-38.75,0.01-58.13,0c-4.3301-0.1-8.7001,0.37-12.9801-0.42c-1.08-6.28-0.12-12.72-0.4199-19.0599
		c-0.0801-27.4301,0.12-54.8601-0.11-82.29c-16.64,0.12-33.28,0.08-49.92,0.03c-1.3099-4.4501-0.8099-9.1001-0.86-13.66
		c-0.01-29.1801,0.0699-58.37-0.04-87.56c-17.14-0.15-34.2999,0.29-51.4399-0.24c0.23-16.8-0.05-33.61,0.13-50.42l0.0499,0.01
		c0.26,0.41,0.78,1.24,1.04,1.65c13.22-0.41,26.4401-0.02,39.67-0.14c3.21-0.24,6.97,0.95,9.71-1.27
		c0.83-16.97,0.12-34.02,0.36-51.03c17.0601-0.04,34.13-0.33,51.1801,0.14c-0.8401,5.27-0.0601,10.61-0.17,15.91
		c-0.1801,11.52-0.4301,23.05,0.17,34.56c11.58,0.21,23.1699-0.02,34.76,0.06c5.1699,0.13,10.4199-0.56,15.5299,0.62
		c0.54,15.58-0.12,31.18,0.3,46.76c-0.38,2.44,1.96,3.66,4.09,3.4c15.51,0.05,31.03-0.11,46.55,0.07
		c0.51,15.49,0.08,31.01,0.1899,46.51c-0.0599,1.9099,0.76,4.51,3.17,4.3099c15.86,0.1901,31.74-0.12,47.61,0.16
		c0.37,16.86-0.3099,33.74,0.33,50.6c2.03,0.14,4.0801,0.29,6.15,0.33c27.3201-0.0699,54.64,0.02,81.9601-0.0499
		c4.5599-0.01,9.1499,0.39,13.6699-0.4501c0-15.6699-0.09-31.35,0.02-47.0099c-0.27-1.9501,1.4-3.54,3.33-3.3301
		c15.3301-0.1699,30.67,0.1,46-0.0699c2.12,0.3099,1.3601-2.26,1.63-3.54c-0.09-14.33-0.0599-28.66-0.0699-42.98
		c-0.35-2.15,1.09-4.55,3.47-4.37c15.5801-0.15,31.1801,0.06,46.77-0.02c0.89-5.85,0.3-11.76,0.39-17.64
		c0.03-10.94-0.08-21.88,0.17-32.82c5.5299-0.8,11.1299-0.42,16.7-0.48c11.28-0.03,22.5699,0.08,33.85-0.04
		c0.6801-5.2-0.12-10.41-0.02-15.61C1679.02,922.38,1678.98,893.76,1679.26,865.11z"/>
	<path fill="#7D2FC3" stroke="#7D2FC3" stroke-width="0.494" d="M305.28,661.35c0.06-16.97-0.23-33.96,0.15-50.92
		c33.65,0.24,67.31,0.09,100.96,0.07c1.08,1.51,2.79,1.99,4.57,1.85c79-0.1,158-0.0099,237-0.06c5.34,0.17,10.67-0.23,16-0.46
		c16.12,0.6,32.25-0.07,48.38,0.47c0.1,16.4-0.21,32.81,0.15,49.21c16.94-0.14,33.88-0.18,50.81,0.01
		c-0.19,16.91-0.03,33.83-0.07,50.75c16.93,0.03,33.87,0.07,50.81-0.02c0.17,16.98-0.03,33.96,0.09,50.94
		c16.94-0.05,33.89-0.01,50.84-0.02c0.19,16.94,0.05,33.89,0.07,50.83l0.4901,0.2c3.91,1.67,8.28,0.51,12.4,0.76
		c12.28,0.2,24.57-0.38,36.83,0.31c0.93,11.54,0.17,23.15,0.42,34.72c-0.32,10.69,1,21.32,0.63,32.01
		c-0.27,10.96,0.62,21.99-0.48,32.89c-0.05,0.3-0.16,0.88-0.21,1.17c-16.59-0.65-33.22,0.13-49.81-0.41
		c-0.8-16.84-0.11-33.73-0.45-50.59c-16.95-0.35-33.9-0.01-50.85-0.15l-0.02-0.42c0.16-16.78,0.25-33.58-0.05-50.36
		c-16.77-0.06-33.54,0-50.31-0.02h-0.34c-0.28-16.96,0.31-33.93-0.31-50.87c-16.9-0.04-33.8-0.1-50.69,0.01
		c0.03,15.58,0.05,31.16,0.01,46.74c0.1,1.83-0.83,3.44-1.59,5.05c1.3,4.88,0.82,9.95,0.87,14.95c0.02,19.32-0.03,38.65,0.02,57.97
		c-0.3,9.29,0.6,18.63-0.5699,27.88c-101.29-0.09-202.58,0.1-303.87-0.1c-0.22-44.9-0.02-89.81-0.1-134.72
		c-0.02-5.93,0.19-11.87-0.17-17.8c-16.91-0.14-33.83,0.21-50.74-0.1899c0-0.44-0.01-1.33-0.01-1.77c-0.04-16.33,0.23-32.67-0.14-49
		c-16.9,0.14-33.81-0.01-50.72,0.08c0.03,16.67-0.02,33.34,0.03,50.02c-1.73,0.44-3.49,0.89-5.29,0.88
		c-15.21-0.01-30.44-0.19-45.65,0.1c0.02,15.23,0,30.46,0.03,45.69c-0.14,1.73,0.17,4.97-2.38,4.9399
		c-16.08,0.3701-32.19-0.12-48.28,0.2c-0.43,16.94-0.08,33.9-0.16,50.85c-16.95-0.2-33.9-0.18-50.85,0
		c-0.3,16.79,0.09,33.58-0.18,50.37c0,0.16-0.02,0.49-0.02,0.65c-15.51-0.43-31.04-0.15-46.56-0.21
		c-18.32-1.48-36.75,0.08-55.09-1.06c-0.08-16.62,0.01-33.23-0.04-49.84c16.97-0.04,33.94,0.06,50.91-0.05
		c-0.03-16.94-0.01-33.87,0-50.8c16.94-0.01,33.87-0.04,50.81,0c0.13-16.95,0.05-33.91,0.04-50.87c16.95-0.07,33.9-0.05,50.86-0.02
		c0.07-16.96,0-33.92,0.03-50.87c16.96-0.06,33.92,0.02,50.88-0.04c0.08-16.96-0.08-33.9301,0.09-50.88
		C271.4,661.4,288.34,661.49,305.28,661.35z"/>
	<path fill="#7D359C" stroke="#7D359C" stroke-width="0.494" d="M406.39,610.5c101.97-0.17,203.96-0.14,305.94,0.07l0.01,1.73
		c-16.13-0.54-32.26,0.13-48.38-0.47c-5.33,0.23-10.66,0.63-16,0.46c-79,0.05-158-0.04-237,0.06
		C409.18,612.49,407.47,612.01,406.39,610.5z"/>
	<path fill="#820A4A" stroke="#820A4A" stroke-width="0.494" d="M1068.67,611.06c33.47,0.61,66.97-0.15,100.4299,0.4
		c-1.3099,0.59-2.76,0.74-4.16,0.7599c-31.6699,0-63.36,0-95.0299-0.0099C1069.6,611.93,1068.98,611.35,1068.67,611.06z"/>
	<path fill="#B4156A" stroke="#B4156A" stroke-width="0.494" d="M1322.12,660.25c16.83-0.82,33.73,0.24,50.5699-0.91
		c0.3101,0.3199,0.9401,0.97,1.26,1.3c-17,0.27-34.01-0.19-51.01,0.17l-0.0099,0.66c-0.0701,16.9301-0.02,33.86-0.02,50.79
		c-16.9401,0.16-33.88,0.07-50.8201,0.04c-0.15,33.93,0.01,67.86-0.0699,101.79c-17.05-0.1801-34.13,0.41-51.16-0.32l0.3201-0.98
		c6.58,0.2401,13.1699,0.12,19.7599,0.03c9.91-0.2,19.8401,0.44,29.75-0.18c0.02-23.55,0.13-47.1,0.02-70.65
		c0.1801-10.27-0.2999-20.55,0.5-30.79c16.78-0.55,33.62,0.55,50.37-0.58c0.12-11.54-0.0199-23.08-0.01-34.62
		C1321.65,670.74,1321.21,665.45,1322.12,660.25z"/>
	<path fill="#FFBA9D" stroke="#FFBA9D" stroke-width="0.494" d="M1322.9301,661.47c16.99,0.01,33.98-0.05,50.97,0.03
		c-0.36,16.92-0.0801,33.86-0.15,50.8c16.42,0.04,32.84,0.09,49.26-0.03c0.4,0.07,1.1799,0.19,1.5699,0.26
		c0.0901,16.89,0.04,33.79,0.01,50.68c-16.9199-0.25-33.85-0.01-50.7799-0.11c-0.1901,16.9301-0.0601,33.87-0.05,50.81
		c-16.8,0.14-33.59,0.15-50.38-0.06c2.9301-1.73,6.42-1.13,9.67-1.21c13.2,0.02,26.3999,0.13,39.59,0.01
		c0.04-15.22-0.08-30.4301-0.04-45.65c0.05-1.59,0.0601-3.22,0.62-4.71c1.3101-1.04,3.16-0.5099,4.73-0.68
		c14.9501,0.03,29.9,0.04,44.8501,0.05c0.35-15.79,0.25-31.59,0.0299-47.3799c-15.89-0.05-31.7899-0.32-47.6599,0.11
		c-3.76-1.56-3.15-6.16-3.1901-9.45c0.13-13.9-0.45-27.8-0.08-41.69c-15.8301-0.21-31.67-0.28-47.5,0.02
		c-0.15,15.24,0.01,30.49-0.02,45.73c-0.15,1.43,0.24,3.23-1.13,4.21c-1.59,1.84-4.09,1.04-6.14,0.92
		c-1.26,0.61-2.51,1.23-3.75,1.86c-1.33-0.85-2.62-2-4.2999-1.81c-8.04-0.01-16.0801,0.03-24.1201-0.04
		c-2.1-0.12-4.0599,0.64-5.9399,1.44c-1.8101-0.99-3.77-1.11-5.6801-0.39c0.05,26.91-0.0199,53.82,0.02,80.73
		c-0.13,6.34,0.39,12.72-0.46,19.04c-16.8101,0.87-33.6801,0.13-50.51,0.37c-0.13,16.52,0.29,33.06-0.2,49.57l-1.0701,0.06
		c-0.1899-17.06,0.27-34.14-0.24-51.19c17.03,0.73,34.11,0.14,51.16,0.32c0.08-33.9301-0.0801-67.86,0.0699-101.79
		c16.9401,0.03,33.88,0.12,50.8201-0.04C1322.91,695.33,1322.86,678.4,1322.9301,661.47z"/>
	<path fill="#FFBA9D" stroke="#FFBA9D" stroke-width="0.494" d="M1475.55,1272.25c16.9199-0.15,33.85,0.0601,50.7799-0.09v0.7899
		c-13.76-0.2799-27.5199,0.15-41.2699-0.1799c-2.89-0.15-5.77,0.15-8.5701,0.77c-0.1799,16.0699-0.17,32.14-0.02,48.21
		c-0.21,0.3101-0.62,0.9301-0.83,1.24h-0.2001v-0.11C1475.8101,1306.01,1475.6,1289.12,1475.55,1272.25z"/>
	<path fill="#B6106E" stroke="#B6106E" stroke-width="0.494" d="M1373.9,661.5c2.22,1.84,0.9399,5,1.23,7.5
		c0.11,13.86-0.25,27.74,0.15,41.58c16.26,0.88,32.5699-0.13,48.85,0.45c-0.28,0.31-0.84,0.93-1.12,1.24
		c-16.42,0.12-32.84,0.07-49.26,0.03C1373.8199,695.36,1373.54,678.42,1373.9,661.5z"/>
	<path fill="#4F0791" stroke="#4F0791" stroke-width="0.494" d="M305.28,712.34c16.91-0.09,33.82,0.06,50.72-0.08
		c0.37,16.33,0.1,32.67,0.14,49c-6.7,0.79-13.44,0.42-20.16,0.48c-9.02-0.13-18.05,0.27-27.07-0.26c-1.3-0.2-2.24,0.82-3.2,1.51
		c-0.16,0.15-0.48,0.46-0.64,0.62c-0.32,0.36-0.95,1.08-1.27,1.44c-0.23,15.91,0.15,31.83-0.21,47.74
		c-15.19,0.56-30.4,0.13-45.6,0.22c-1.24-0.01-2.41,0.28-3.51,0.87c-0.17,17.06,0.01,34.12-0.08,51.17
		c-16.94-0.04-33.88,0.03-50.82-0.03c0.08-16.95-0.27-33.91,0.16-50.85c16.09-0.32,32.2,0.17,48.28-0.2
		c2.55,0.03,2.24-3.21,2.38-4.9399c-0.03-15.23-0.01-30.46-0.03-45.69c15.21-0.29,30.44-0.11,45.65-0.1
		c1.8,0.01,3.56-0.44,5.29-0.88C305.26,745.68,305.31,729.01,305.28,712.34z"/>
	<path fill="#4F0791" stroke="#4F0791" stroke-width="0.494" d="M356.15,763.03c16.91,0.4,33.83,0.05,50.74,0.1899
		c0.36,5.9301,0.15,11.8701,0.17,17.8c0.08,44.91-0.12,89.82,0.1,134.72c101.29,0.2,202.58,0.01,303.87,0.1
		c1.17-9.25,0.27-18.59,0.5699-27.88c-0.05-19.32,0-38.65-0.02-57.97c-0.05-5,0.43-10.07-0.87-14.95
		c0.7599-1.61,1.69-3.22,1.59-5.05c0.04-15.58,0.02-31.16-0.01-46.74c16.89-0.11,33.79-0.05,50.69-0.01
		c0.62,16.94,0.03,33.91,0.31,50.87c-17.03-0.04-34.05-0.05-51.08,0.01c0.07,50.58,0.09,101.16,0.12,151.74
		c-92.44-0.03-184.89,0-277.33-0.01c-9.41,0.29-18.86-0.66-28.24,0.41c-16.85,0.62-33.75-0.07-50.61,0.35
		c-0.02-67.57-0.02-135.14,0-202.71V763.03z"/>
	<path fill="#4F0791" stroke="#4F0791" stroke-width="0.494" d="M763.63,814.11c16.77,0.02,33.54-0.04,50.31,0.02
		c0.3,16.78,0.21,33.58,0.05,50.36c-16.01-0.18-32.06,0.32-48.06-0.24c-2.87,0.03-2.27-3.32-2.41-5.22
		C763.65,844.06,763.46,829.08,763.63,814.11z"/>
	<path fill="#4F0791" stroke="#4F0791" stroke-width="0.494" d="M865.53,814.2c16.74,0.12,33.47,0.07,50.2,0.01
		c-0.02,16.9-0.06,33.8,0.03,50.7c16.99,0.11,33.99-0.08,50.98,0.1c0.06,16.95-0.09,33.9,0.08,50.85l-0.11,0.01
		c-17.1-0.94-34.32,0.74-51.38-0.98c1.1-10.9,0.21-21.93,0.48-32.89c0.37-10.69-0.95-21.32-0.63-32.01
		c-0.25-11.57,0.51-23.18-0.42-34.72c-12.26-0.69-24.55-0.11-36.83-0.31C873.81,814.71,869.44,815.87,865.53,814.2z"/>
	<path fill="#4F0791" stroke="#4F0791" stroke-width="0.494" d="M152.73,865.02c16.95-0.18,33.9-0.2,50.85,0
		c-0.09,16.92-0.06,33.84-0.01,50.77l-0.43-0.04c-1.88-16.4,0.98-33.07-0.62-49.46c0.45,15.53-0.42,31.06-0.07,46.6
		c-1.41,1.65-3.21,2.92-5.5,2.64c-14.8,0-29.61,0.22-44.4-0.14C152.82,898.6,152.43,881.81,152.73,865.02z"/>
	<path fill="#4F0791" stroke="#4F0791" stroke-width="0.494" d="M814.01,864.91c16.95,0.14,33.9-0.2,50.85,0.15
		c0.34,16.86-0.35,33.75,0.45,50.59c16.59,0.54,33.22-0.2401,49.81,0.41c1.05,12.28,0.27,24.63,0.5,36.95
		c-0.26,4.33,0.6,8.82-0.44,13.05c-1.66,0.66-3.47,0.41-5.19,0.49c-14.43-0.15-28.87,0.04-43.3-0.06
		c-0.88-11.8-0.14-23.65-0.38-35.47c-0.28-4.88,1.04-10.1-1.27-14.64l-0.19-0.54c-16.93,0.05-33.85-0.01-50.78,0.04
		C814,898.89,814.12,881.9,814.01,864.91z"/>
	<path fill="#4F0791" stroke="#4F0791" stroke-width="0.494" d="M50.88,914.77c18.34,1.14,36.77-0.42,55.09,1.06
		c15.52,0.06,31.05-0.22,46.56,0.21c-0.29,15.67-0.01,31.35-0.17,47.03c0.11,1.4-0.54,3.58-2.36,3.32
		c-16.08,0.01-32.18,0.21-48.26-0.11c0.03-16.82-0.07-33.63,0.05-50.44c-16.96-0.34-33.93-0.15-50.9-0.14L50.88,914.77z"/>
	<path fill="#B4116D" stroke="#B4116D" stroke-width="0.494" d="M1425.46,713.82c1.52,2.81,0.77,6.09,0.87,9.14
		c-0.09,11.0099-0.2,22.03,0.0801,33.04c0,1.81,0.02,3.73-0.98,5.33c-0.53-10.09,0.0099-20.21-0.1801-30.31
		C1425.3199,725.29,1424.99,719.54,1425.46,713.82z"/>
	<path fill="#43126D" stroke="#43126D" stroke-width="0.494" d="M305.71,762.99c0.96-0.69,1.9-1.71,3.2-1.51
		c9.02,0.53,18.05,0.13,27.07,0.26c6.72-0.06,13.46,0.31,20.16-0.48c0,0.44,0.01,1.33,0.01,1.77
		C339.34,762.95,322.52,763.04,305.71,762.99z"/>
	<path fill="#D7B9F3" stroke="#D7B9F3" stroke-width="0.494" d="M305.07,763.61c0.16-0.16,0.48-0.47,0.64-0.62
		c16.81,0.05,33.63-0.04,50.44,0.04v0.87c-16.71-0.14-33.43-0.27-50.13,0.05c-0.79,16.7,0.59,33.49-0.68,50.16
		C304.76,797.29,305.31,780.44,305.07,763.61z"/>
	<path fill="#B61F6A" stroke="#B61F6A" stroke-width="0.494" d="M1373.8101,763.1c16.9299,0.1,33.86-0.14,50.7799,0.11l0.8301,0.46
		c-1.78,0.4-3.6001,0.75-5.4,0.75c-14.02-0.09-28.04-0.03-42.05-0.05c-2.13-0.46-3.36,1.68-3.1899,3.54
		c-0.03,15.06,0.24,30.14,0,45.19c0.09,3.1-3.85,2.14-5.78,2.08c-13.6899-0.25-27.4,0.24-41.09-0.18c-1.42-0.15-3.6901,0.2-3.52,2.1
		c-0.2001,15.3,0.1899,30.63-0.15,45.9301c-0.3099,0.3799-0.95,1.1299-1.26,1.5099c-0.09-16.82,0.09-33.64-0.11-50.46l0.51-0.23
		c16.79,0.21,33.58,0.2,50.38,0.06C1373.75,796.97,1373.62,780.03,1373.8101,763.1z"/>
	<path fill="#441071" stroke="#441071" stroke-width="0.494" d="M303.8,765.05c0.32-0.36,0.95-1.08,1.27-1.44
		c0.24,16.83-0.31,33.68,0.27,50.5c-16.95-0.2-33.91,0.24-50.86-0.23c1.1-0.59,2.27-0.88,3.51-0.87c15.2-0.09,30.41,0.34,45.6-0.22
		C303.95,796.88,303.57,780.96,303.8,765.05z"/>
	<path fill="#040716" stroke="#040716" stroke-width="0.494" d="M763.29,814.11h0.34c-0.17,14.97,0.02,29.95-0.11,44.92
		c0.14,1.9-0.46,5.25,2.41,5.22c16,0.56,32.05,0.06,48.06,0.24l0.02,0.42c-16.91-0.09-33.81,0.07-50.71-0.09
		C763.21,847.91,763.23,831.01,763.29,814.11z"/>
	<path fill="#040716" stroke="#040716" stroke-width="0.494" d="M202.52,866.29c1.6,16.39-1.26,33.06,0.62,49.46
		c-16.84,0.04-33.68,0.09-50.52,0.01c-0.05,16.95,0.07,33.9-0.07,50.85c-16.94,0.16-33.88,0.05-50.81,0.05V966.28
		c16.08,0.3199,32.18,0.12,48.26,0.11c1.82,0.26,2.47-1.92,2.36-3.32c0.16-15.68-0.12-31.36,0.17-47.03c0-0.16,0.02-0.49,0.02-0.65
		c14.79,0.36,29.6,0.14,44.4,0.14c2.29,0.28,4.09-0.9901,5.5-2.64C202.1,897.35,202.97,881.82,202.52,866.29z"/>
	<path fill="#040716" stroke="#040716" stroke-width="0.494" d="M254.41,1526.42c-0.01-50.9-0.04-101.79,0.02-152.6801
		c33.92,0.04,67.83,0,101.75,0.02c0.3,16.89-0.35,33.8,0.28,50.6899c16.41,0.4301,32.87-0.3899,49.26,0.4701
		c6.06,0.9099,12.2,0.26,18.3,0.45c28.26-0.15,56.53,0.29,84.77-0.2c0.03,33.75,0,67.5,0.02,101.25
		C424.01,1526.39,339.21,1526.4,254.41,1526.42z"/>
	<path fill="#040716" stroke="#040716" stroke-width="0.494" d="M714.06,1373.75c50.3,0.01,100.59,0.02,150.89,0
		c0.03,50.89,0.02,101.78,0,152.67c-84.8-0.03-169.6-0.02-254.4,0c0.02-33.7201-0.01-67.4401,0.02-101.15
		c2.76,0.5699,5.57,1,8.41,0.91c26-0.52,51.99,0.3899,77.99,0.1699c6.2-0.1899,12.58,0.67,18.6201-1.14
		c-0.52-2.38-0.98-4.7799-0.9301-7.21c0.1201-10.66,0.03-21.33,0.06-31.99C714.83,1381.91,714.83,1377.79,714.06,1373.75z"/>
	<path fill="#83133E" stroke="#83133E" stroke-width="0.494" d="M1219.74,824.98c0.21-3.74-0.9299-7.83,1.12-11.21
		c0.51,17.05,0.05,34.13,0.24,51.19c-16.97,0-33.9399,0.08-50.9-0.04c0.55-1.68,2.4401-1.17,3.8201-1.31
		c15.1799-0.05,30.37,0.27,45.5499-0.12C1220,850.66,1219.6,837.81,1219.74,824.98z"/>
	<path fill="#FF9BB2" stroke="#FF9BB2" stroke-width="0.494" d="M1321.78,814.98c0.27-0.23,0.8199-0.67,1.09-0.9
		c0.2,16.82,0.02,33.64,0.11,50.46c-0.14,0.13-0.4,0.39-0.53,0.52c-16.7899-0.14-33.58,0-50.37-0.08c0.2301-0.3,0.67-0.91,0.89-1.21
		c16.22-0.25,32.4401,0.1,48.66-0.11C1321.83,847.43,1321.5,831.2,1321.78,814.98z"/>
	<path fill="#AE1661" stroke="#AE1661" stroke-width="0.494" d="M1272.08,864.98c16.79,0.08,33.5801-0.06,50.37,0.08
		c-1.2899,1.02-2.9099,1.34-4.5,1.32c-14.8999,0.03-29.7899-0.07-44.6899,0c-0.24,12.52-0.04,25.04-0.1,37.56
		c-0.12,4.07,0.61,8.3-0.87,12.21c-0.7101-16.88,0.01-33.8-0.38-50.69L1272.08,864.98z"/>
	<path fill="#F59FA2" stroke="#F59FA2" stroke-width="0.494" d="M1271.0601,878.05c0.09-4.2-0.92-8.61,0.85-12.59
		c0.39,16.89-0.3301,33.81,0.38,50.69c-17.05-0.47-34.12-0.1801-51.1801-0.14c-0.24,17.01,0.47,34.06-0.36,51.03
		c-16.8-0.47-33.62-0.0099-50.42-0.24l-0.0499-0.01l0.0499-0.75c2.1901-0.3,4.41-0.45,6.65-0.44c13.67,0.09,27.35,0.08,41.03,0.03
		c1.9,0.13,2.22-2.24,2.15-3.64c0.02-9.66-0.5-19.32-0.13-28.97c0.2999-5.95-0.5901-11.91,0.26-17.82
		c16.7999-0.31,33.62,0.3,50.4199-0.3C1271,902.62,1271.01,890.33,1271.0601,878.05z"/>
	<path fill="#FABBB5" stroke="#FABBB5" stroke-width="0.494" d="M915.83,919.79c0-1.5-0.22-4.14,2.06-3.89
		c16.27-0.1,32.55,0.02,48.82-0.03c-3.53,2.2-7.82,0.94-11.72,1.19c-12.52,0.24-25.07-0.34-37.57,0.35
		c-0.92,11.83-0.07,23.7401-0.36,35.6c-0.31,4.51,1.09,9.34-0.97,13.58C915.57,951,916.04,935.39,915.83,919.79z"/>
	<path fill="#390529" stroke="#390529" stroke-width="0.494" d="M1831.7,915.84c29.4301,0,58.8601-0.01,88.3,0v101.8
		c-12.5-0.05-24.99-0.01-37.49-0.03c-33.91-0.04-67.8201,0-101.73-0.02c0.03-16.98,0-33.95,0.01-50.92
		c-16.9701-0.04-33.9401,0.05-50.9-0.05c-0.01,16.93-0.15,33.86,0.0699,50.79l-0.59,0.64l0.0699-0.85
		c0.1801-16.95-0.2699-33.92,0.2101-50.86c16.66,0.2,33.33-0.07,49.99,0.16l1.09,0.07c16.98,0.35,33.97,0.05,50.96,0.15
		C1831.6801,949.76,1831.65,932.8,1831.7,915.84z"/>
	<path fill="#390529" stroke="#390529" stroke-width="0.494" d="M1170.15,1017.21c17.14,0.53,34.2999,0.09,51.4399,0.24
		c0.11,29.19,0.03,58.3799,0.04,87.56c0.05,4.5599-0.45,9.21,0.86,13.66c16.64,0.0499,33.28,0.09,49.92-0.03
		c0.23,27.4299,0.0299,54.86,0.11,82.29c0.2999,6.34-0.66,12.7799,0.4199,19.0599c4.28,0.79,8.65,0.3201,12.9801,0.42
		c19.38,0.01,38.76-0.04,58.13,0c9.9299,0.24,19.8899-0.5,29.7999,0.2999l-0.38,0.2101c-33.77-0.0601-67.53,0-101.2999-0.03
		c-0.24-33.86,0-67.74-0.12-101.61c-16.91,0.08-33.8201-0.1-50.7201,0.09c-0.35-33.9301-0.0599-67.86-0.14-101.8
		c-17.0199,0.02-34.0399,0.06-51.0599-0.02L1170.15,1017.21z"/>
	<path fill="#390529" stroke="#390529" stroke-width="0.494" d="M1628.15,1373.77c16.99-0.04,33.98,0.01,50.97-0.02
		c-0.25,33.9301,0.08,67.88-0.17,101.8199c-16.9399-0.1-33.87-0.0299-50.7999-0.0299c0.0399,16.95,0.01,33.9099,0.01,50.87
		c-33.91,0-67.8201-0.04-101.73,0.02c-0.0901-33.9401-0.0801-67.87-0.01-101.8c33.9199-0.03,67.84,0.0699,101.76-0.15
		C1628.11,1407.58,1628.16,1390.67,1628.15,1373.77z"/>
	<path fill="#401465" stroke="#401465" stroke-width="0.494" d="M865.04,916.38c2.31,4.54,0.9901,9.76,1.27,14.64
		c0.24,11.82-0.5,23.67,0.38,35.47c-0.41-0.02-1.23-0.06-1.64-0.08C864.86,949.74,864.9,933.05,865.04,916.38z"/>
	<path fill="#00157B" stroke="#00157B" stroke-width="0.494" d="M356.15,966.61c16.86-0.42,33.76,0.27,50.61-0.35
		c0.13,0.46,0.37,1.38,0.5,1.83c-0.06,117.33-0.01,234.66-0.03,351.9899c0.11,34.6001-0.21,69.2101,0.13,103.8201
		c-0.41,0.25-1.23,0.77-1.64,1.02c-16.39-0.86-32.85-0.04-49.26-0.4701c-0.63-16.8899,0.02-33.7999-0.28-50.6899
		C356.09,1238.04,356.16,1102.33,356.15,966.61z"/>
	<path fill="#1F16B1" stroke="#1F16B1" stroke-width="0.494" d="M406.76,966.26c9.38-1.07,18.83-0.12,28.24-0.41
		c92.44,0.01,184.89-0.02,277.33,0.01l-0.02,0.87c-0.35,0.48-1.05,1.44-1.39,1.93c-3.91-0.98-7.95-0.95-11.94-0.8199
		c-88.33-0.05-176.67,0.02-265-0.01c-8.91,0.04-17.82-0.19-26.72,0.26C407.13,967.64,406.89,966.72,406.76,966.26z"/>
	<path fill="#0B25A0" stroke="#0B25A0" stroke-width="0.494" d="M710.92,968.66c0.34-0.49,1.04-1.45,1.39-1.93
		c0.06,85.41,0.01,170.8301,0.02,256.24c-0.12,50.28,0.24,100.5701-0.18,150.8401l-0.35,1.49c-1.36-4.67-0.93-9.55-0.94-14.3301
		C710.93,1230.2,710.82,1099.4301,710.92,968.66z"/>
	<path fill="#DC9A5D" stroke="#DC9A5D" stroke-width="0.494" d="M916.06,966.7c23.66-0.02,47.31-0.01,70.97,0.01
		c10.22,0.21,20.46-0.45,30.66,0.34c-0.16,16.82,0.14,33.65-0.17,50.47c-33.79,0.33-67.59-0.02-101.39,0.14
		c-0.27-3.24-0.38-6.48-0.3-9.72C915.98,994.19,915.57,980.44,916.06,966.7z"/>
	<path fill="#DC9A5D" stroke="#DC9A5D" stroke-width="0.494" d="M1731.0601,1017.48c16.5599,0.25,33.1399,0.03,49.72,0.11
		c-0.0601,11.79,0.02,23.59-0.04,35.39c-0.09,5.12,0.4301,10.28-0.38,15.37c-16.39,0.02-32.7999,0.35-49.17-0.1899
		C1731.05,1051.27,1731.22,1034.37,1731.0601,1017.48z"/>
	<path fill="#DC9A5D" stroke="#DC9A5D" stroke-width="0.494" d="M1680.21,1070.05c6.25-0.6901,12.55-0.3601,18.8401-0.42
		c10.2799,0.36,20.6-0.51,30.88,0.3c-0.02,15.0199-0.01,30.0399,0,45.0599c-0.3101,1.37,0.4199,4.38-1.8301,4.23
		c-16.27,0.4-32.5699-0.08-48.85,0.17l0.14-0.63c1.2999-3.8,0.74-7.83,0.8199-11.75
		C1680.24,1094.6899,1680.21,1082.37,1680.21,1070.05z"/>
	<path fill="#DC9A5D" stroke="#DC9A5D" stroke-width="0.494" d="M1629.51,1120.71c4.83-0.51,9.6899-0.2999,14.55-0.2999
		c11.6399,0.13,23.3099-0.35,34.95,0.24c0.14,16.5499-0.03,33.11,0.09,49.66c-16.63-0.04-33.26,0-49.89-0.03
		C1629.65,1153.76,1629.05,1137.23,1629.51,1120.71z"/>
	<path fill="#DC9A5D" stroke="#DC9A5D" stroke-width="0.494" d="M1525.83,1221.21l0.3501,0.15c2.71,1.47,5.87,0.92,8.84,0.9401
		c13.97-0.0801,27.95-0.01,41.9199-0.04c-0.1799,16.55-0.0599,33.11-0.0499,49.66c-16.85,0.2999-33.72-0.17-50.5601,0.24
		c0.14-13.7201-0.01-27.4301,0.0601-41.14c0-3.21,0.23-6.46-0.51-9.59L1525.83,1221.21z"/>
	<path fill="#DC9A5D" stroke="#DC9A5D" stroke-width="0.494" d="M1476.49,1273.54c2.8-0.62,5.6801-0.92,8.5701-0.77
		c13.75,0.33,27.5099-0.1,41.2699,0.1799c0.1001,16.27-0.01,32.54,0.05,48.8101c-16.64,0.1799-33.28,0.14-49.91-0.01
		C1476.3199,1305.6801,1476.3101,1289.61,1476.49,1273.54z"/>
	<path fill="#DC9A5D" stroke="#DC9A5D" stroke-width="0.494" d="M1526.39,1323.12c16.87-0.51,33.79-0.28,50.6799-0.1
		c0.63,16.89,0.02,33.8099,0.26,50.72c-16.97-0.08-33.95,0.0601-50.9199-0.09C1526.36,1356.8,1526.41,1339.96,1526.39,1323.12z"/>
	<path fill="#810B46" stroke="#810B46" stroke-width="0.494" d="M1170.33,966.8c16.8,0.23,33.62-0.23,50.42,0.24
		c-2.74,2.22-6.5,1.03-9.71,1.27c-13.23,0.12-26.4501-0.27-39.67,0.14C1171.11,968.04,1170.59,967.21,1170.33,966.8z"/>
	<path fill="#0122C9" stroke="#0122C9" stroke-width="0.494" d="M407.26,968.09c8.9-0.45,17.81-0.22,26.72-0.26
		c88.33,0.03,176.67-0.04,265,0.01c3.99-0.13,8.03-0.16,11.94,0.8199c-0.1,130.7701,0.01,261.54-0.06,392.31
		c0.01,4.78-0.42,9.66,0.94,14.3301c0.89,5.1699,0.38,10.4399,0.49,15.6699c-0.05,10.36,0.1,20.73-0.05,31.1
		c0.16,2.92-3.27,2.3501-5.19,2.4301c-15.1-0.26-30.22,0.25-45.31-0.25c-0.43-51.76-0.07-103.53-0.17-155.29
		c-0.05-65.99,0.01-131.98-0.04-197.96c0.37-3.98-4.97-3.24-7.4901-2.79c-14.14,0.5701-28.31-0.1499-42.46,0.25l-0.96,0.02h-0.26
		c0.16-15.5,0.04-31,0.09-46.5c0.37-2.53-1.83-4.83-4.39-4.37c-31.02,0.03-62.05-0.02-93.08,0.01c-2.09-0.25-4.4,1.04-4.24,3.39
		c-0.02,15.8099,0.1,31.63-0.13,47.45v0.17c-1.25,3.3199-0.94,6.89-0.9,10.37c0.01,114.88,0.01,229.76,0,344.63
		c-29.24,0.12-58.49,0.01-87.73,0.0599c-4.21,0.03-8.43-0.21-12.62,0.2101c-0.34-34.61-0.02-69.22-0.13-103.8201
		C407.25,1202.75,407.2,1085.42,407.26,968.09z"/>
	<path fill="#00157A" stroke="#00157A" stroke-width="0.494" d="M508.74,1021.01c-0.16-2.35,2.15-3.64,4.24-3.39
		c31.03-0.03,62.06,0.02,93.08-0.01c2.56-0.46,4.76,1.84,4.39,4.37c-0.05,15.5,0.07,31-0.09,46.5c-33.92,0-67.83,0.05-101.75-0.02
		C508.84,1052.64,508.72,1036.8199,508.74,1021.01z"/>
	<path fill="#00157A" stroke="#00157A" stroke-width="0.494" d="M654.04,1068.21c2.52-0.45,7.86-1.1899,7.4901,2.79
		c0.05,65.98-0.01,131.97,0.04,197.96c0.1,51.76-0.26,103.53,0.17,155.29c-16.66-1.45-33.47-0.08-50.19-0.72
		c-0.28-109.8301-0.02-219.67-0.12-329.51c0.07-8.52-0.13-17.05,0.15-25.5601C625.73,1068.0601,639.9,1068.78,654.04,1068.21z"/>
	<path fill="#00157A" stroke="#00157A" stroke-width="0.494" d="M507.71,1079c-0.04-3.48-0.35-7.05,0.9-10.37
		c0.3,11.11,0.05,22.23,0.14,33.35c0.02,107.73-0.07,215.46,0.04,323.1901c-28.24,0.49-56.51,0.0499-84.77,0.2
		c-6.1-0.1899-12.24,0.46-18.3-0.45c0.41-0.25,1.23-0.77,1.64-1.02c4.19-0.42,8.41-0.1801,12.62-0.2101
		c29.24-0.0499,58.49,0.0601,87.73-0.0599C507.72,1308.76,507.72,1193.88,507.71,1079z"/>
	<path fill="#C0286B" stroke="#C0286B" stroke-width="0.494" d="M1729.37,1018.05l0.59-0.64c0.9,16.9901,0.04,34.06,0.4601,51.09
		c-11.78,0.39-23.5701,0.83-35.3301,0.26c-5.2899,0.66-10.58,0.13-15.86-0.14c-0.01-1.24-0.02-2.47-0.04-3.6801
		c0.54,0.8201,1.1001,1.64,1.7001,2.4601c14.38-0.02,28.76-0.05,43.14,0.02c1.7999-0.03,4.65-0.0801,4.9099-2.4501
		c-0.08-6.64-0.21-13.2899-0.1-19.9299C1729.0699,1036.05,1728.23,1026.98,1729.37,1018.05z"/>
	<path fill="#01082E" stroke="#01082E" stroke-width="0.494" d="M610.62,1068.48l0.96-0.02c-0.28,8.51-0.08,17.04-0.15,25.5601
		c0.1,109.84-0.16,219.6799,0.12,329.51c16.72,0.64,33.53-0.73,50.19,0.72c15.09,0.5,30.21-0.01,45.31,0.25
		c1.92-0.08,5.35,0.49,5.19-2.4301c0.15-10.37,0-20.74,0.05-31.1c-0.11-5.23,0.4-10.5-0.49-15.6699l0.35-1.49
		c0.48-0.02,1.44-0.04,1.91-0.0601c0.77,4.04,0.77,8.16,0.66,12.26c-0.03,10.66,0.0601,21.33-0.06,31.99
		c-0.05,2.4301,0.41,4.83,0.9301,7.21c-6.04,1.8101-12.42,0.9501-18.6201,1.14c-26,0.22-51.99-0.6899-77.99-0.1699
		c-2.84,0.09-5.65-0.3401-8.41-0.91C610.66,1306.34,610.56,1187.41,610.62,1068.48z"/>
	<path fill="#850B41" stroke="#850B41" stroke-width="0.494" d="M1677.6,1073.03c-0.0499-1.48,0.49-2.72,1.63-3.72
		c0.16,16.48-0.16,32.97,0.16,49.45l-0.14,0.63c-6.35-1.14-12.8199-0.37-19.22-0.59c-10.38-0.2001-20.78,0.3899-31.14-0.37
		c3.99-0.88,8.09-0.5601,12.15-0.54c12.1799-0.08,24.36,0.08,36.5499-0.12C1677.72,1102.86,1677.59,1087.9399,1677.6,1073.03z"/>
	<path fill="#7A0D58" stroke="#7A0D58" stroke-width="0.494" d="M1578.39,1168.25c16.61,1.45,33.33,0.47,49.98,0.55v1.48
		c-16.97-0.1-33.9399,0.0399-50.91-0.0701C1577.7,1169.72,1578.16,1168.74,1578.39,1168.25z"/>
	<path fill="#840E40" stroke="#840E40" stroke-width="0.494" d="M1525.38,1219.97c17.29-0.63,34.63,0.02,51.95-0.26l0.03,1.28
		c-17.0599,0.24-34.15-0.46-51.1799,0.37l-0.3501-0.15C1525.71,1220.9,1525.49,1220.28,1525.38,1219.97z"/>
	<path fill="#FFCCF8" stroke="#FFCCF8" stroke-width="0.494" d="M1272.17,1220.89c33.7699,0.03,67.5299-0.03,101.2999,0.03
		c-1.8099,1.5399-4.26,1.21-6.4299,1.23c-31.5701-0.37-63.16,0.3199-94.7201-0.3201L1272.17,1220.89z"/>
	<path fill="#DD7B82" stroke="#DD7B82" stroke-width="0.494" d="M1526.1801,1221.36c17.0299-0.83,34.12-0.13,51.1799-0.37
		l-0.42,1.27c-13.97,0.03-27.95-0.04-41.9199,0.04C1532.05,1222.28,1528.89,1222.83,1526.1801,1221.36z"/>
	<path fill="#87094B" stroke="#87094B" stroke-width="0.494" d="M1524.95,1231.08c0.01-3.24-0.47-6.63,0.9301-9.6499
		c0.74,3.13,0.51,6.38,0.51,9.59c-0.0701,13.71,0.08,27.4199-0.0601,41.14c-16.9299,0.15-33.86-0.0601-50.7799,0.09
		c0.0499,16.87,0.26,33.76-0.1101,50.63c-0.4199-0.41-1.2599-1.23-1.6799-1.63c0.52-16.67-0.46-33.41,0.53-50.0601
		c3.1799-0.86,6.45-0.45,9.71-0.37c13.5601-0.2799,27.13,0.01,40.6899-0.12c0.88-5.5299,0.1801-11.12,0.29-16.6799
		C1525.0601,1246.37,1524.97,1238.72,1524.95,1231.08z"/>
	<path fill="#CFAB88" stroke="#CFAB88" stroke-width="0.494" d="M1475.64,1322.99c0.21-0.3099,0.62-0.9299,0.83-1.24
		c16.63,0.15,33.27,0.1899,49.91,0.01l0.01,1.36C1509.47,1323.15,1492.55,1323.3101,1475.64,1322.99z"/>
</g>
</svg>
